<svg id="Layer_1" data-name="Layer 1" xmlns="http://www.w3.org/2000/svg" viewBox="0 0 1283.52 1283.52">
  <g id="light">
    <circle cx="641.76" cy="641.76" r="619.19" style="fill: #fff"/>
    <g>
      <path d="M589.5,526.51V492.34H691.87v43.71h-10ZM711.09,866.59l92.33,9.54V910.3H589.5V876.13l92.34-9.54Zm-72.63-177c0-65.53,0-131.69-1.91-197.21H747.19c-1.91,64.25-1.91,130.41-1.91,197.21v38.8c0,52,0,116.43,1.91,181.95H636.55c1.91-64.25,1.91-130.41,1.91-197.21Zm124.65,60.89H691.87V714.75h72.06c56.22,0,84-39,84-97.19,0-58.5-31.14-88.61-86.54-88.61H691.87V492.34h70.59c132.68,0,185.38,49.87,185.38,125.68C947.84,690.64,901.15,750.44,763.11,750.44Z" style="fill: #0370a3"/>
      <g id="long-semi">
        <path d="M860.44,318.79l-3.25-1.34-4-1.6c-1.63-.55-3.54-1.14-5.7-1.82-8.66-2.62-21.8-5.41-38.87-6.54-8.56-.43-18-.78-28.43-.3l-3.93.13-4,.25c-2.7.18-5.45.31-8.26.54-5.61.51-11.42,1-17.42,1.81-24,2.89-51.06,8.33-80.29,16.28a803.25,803.25,0,0,0-93.3,32A875,875,0,0,0,472.46,407.3c-33.88,19.38-67.78,42-99.44,68.28a515.8,515.8,0,0,0-45.29,42.23A395.91,395.91,0,0,0,289,565.89c-23,33.92-38,70-44,106.22a251.52,251.52,0,0,0-3.19,54.33c0,2.23.26,4.56.4,6.85s.29,4.59.49,6.85l.72,6.75.35,3.36.47,3.3c.29,2.21.58,4.42.87,6.61s.74,4.32,1.11,6.47l.54,3.24.68,3.16c.46,2.1.88,4.22,1.3,6.32,1.94,8.31,4.16,16.42,6.78,24.22a220.41,220.41,0,0,0,9,22.59A207.54,207.54,0,0,0,289,866.24c18.93,24.41,42.84,43.92,67.33,59A371.84,371.84,0,0,0,428.45,959a416.51,416.51,0,0,0,60.07,15.94,305.66,305.66,0,0,0,39.37,4.91,119.83,119.83,0,0,0,13.84.1l-13.81,1.33c-9.08.87-22.5,2.16-40,3.13a542.92,542.92,0,0,1-64.47-.06c-25.35-1.64-54.58-5.49-86.52-15.25a291.27,291.27,0,0,1-49.19-20.13c-4.21-2.12-8.3-4.57-12.51-7-4.11-2.57-8.36-5-12.44-7.91a238.81,238.81,0,0,1-24.31-18.66,232.5,232.5,0,0,1-22.82-22.69c-1.79-2.07-3.64-4.12-5.39-6.27l-5.19-6.53c-1.76-2.19-3.31-4.52-5-6.79s-3.3-4.6-4.81-7a248.5,248.5,0,0,1-17.1-30q-1.84-4-3.72-7.94c-1.2-2.68-2.25-5.4-3.38-8.13l-1.66-4.1c-.55-1.37-1-2.76-1.53-4.14l-3-8.37c-.91-2.81-1.77-5.65-2.63-8.5L161,790.64l-1.12-4.31c-.74-2.89-1.49-5.78-2.23-8.68s-1.26-5.83-1.89-8.76l-.91-4.41-.75-4.42-1.47-8.89c-.44-3-.77-5.95-1.16-8.93s-.81-6-1-9.06a312.91,312.91,0,0,1,2.22-75.84l.74-4.82c.24-1.61.49-3.22.84-4.81l2-9.6,1-4.81,1.24-4.76L161,619c.83-3.19,2-6.29,2.94-9.45s2-6.31,3.15-9.41,2.36-6.18,3.55-9.28l1.79-4.65,2-4.55q2-4.56,4-9.12c1.36-3,2.92-6,4.38-8.95l2.25-4.46c.75-1.49,1.51-3,2.34-4.4l4.92-8.69c.84-1.44,1.63-2.91,2.5-4.32l2.65-4.22,5.32-8.45c1.85-2.76,3.75-5.48,5.64-8.21s3.74-5.52,5.79-8.12a420.78,420.78,0,0,1,51.91-57.52,502.15,502.15,0,0,1,57.61-45.48c39.48-26.77,80.14-47,119.75-62.81a754.19,754.19,0,0,1,114.89-35.23A768.83,768.83,0,0,1,661,296c15.75-1.33,30.79-2,45-2.23s27.58-.05,40,.64a421.14,421.14,0,0,1,63.33,7.7,242.47,242.47,0,0,1,38.39,11.2l5.57,2.25,3.94,1.82Z" style="fill: #0370a3"/>
      </g>
      <g id="short-semi">
        <path d="M365.34,583.42l.73-2c.46-1.33,1.14-3.32,2.18-5.88a180.22,180.22,0,0,1,10.45-21.87c1.24-2.34,2.74-4.69,4.21-7.24s3.16-5.15,5-7.81c3.51-5.43,7.63-11.13,12.22-17.15s9.75-12.28,15.42-18.76,11.91-13.14,18.7-19.9a484.25,484.25,0,0,1,47.29-41.36,533.17,533.17,0,0,1,133.14-74.78,490.49,490.49,0,0,1,83.93-24A432.86,432.86,0,0,1,786.4,335c28.63.55,56.36,3.85,82,10.34a325.12,325.12,0,0,1,37.07,11.68c3,1.19,5.88,2.45,8.78,3.66,1.45.63,2.89,1.23,4.31,1.88l4.2,2c2.78,1.39,5.58,2.63,8.25,4.11l7.93,4.4a235.14,235.14,0,0,1,28.55,19.44,226.17,226.17,0,0,1,23.26,21.35,229.43,229.43,0,0,1,31.86,42.62c3.9,6.69,7.21,13,10,19,1.44,2.95,2.65,5.84,3.87,8.55s2.26,5.33,3.2,7.84c3.9,9.92,6.33,17.76,7.94,23.05.79,2.65,1.38,4.67,1.76,6s.57,2,.58,2.06a57.7,57.7,0,0,0-3.15-7.78,142.81,142.81,0,0,0-12.21-20.65c-3-4.26-6.46-8.86-10.53-13.64a202.46,202.46,0,0,0-13.84-14.86,227.31,227.31,0,0,0-38.05-29.88,251.47,251.47,0,0,0-51.29-24.39c-9.53-3.36-19.62-6.05-30-8.59-10.37-2.25-21.56-4.37-32.95-6.06a498.16,498.16,0,0,0-72.08-5.49,528.33,528.33,0,0,0-78,5.8A630,630,0,0,0,630.36,414a690.75,690.75,0,0,0-70.79,23.82,642.08,642.08,0,0,0-62,28.48,506.84,506.84,0,0,0-51.38,30.8c-7.6,5.18-14.66,10.39-21.16,15.54s-12.52,10.21-17.9,15.2-10.27,9.78-14.51,14.44c-2.18,2.29-4.09,4.61-6,6.78s-3.58,4.34-5.12,6.43a124.4,124.4,0,0,0-12.78,20.25,62.45,62.45,0,0,0-2.56,5.71Z" style="fill: #5fcad4"/>
      </g>
      <polygon id="star-left" points="874.66 222.21 865.18 200.64 843.61 191.16 865.18 181.68 874.66 160.11 884.15 181.68 905.72 191.16 884.15 200.64 874.66 222.21" style="fill: #0370a3"/>
      <polygon id="star-bottom" points="1002.37 380.39 988.48 342.3 950.38 328.4 988.48 314.51 1002.37 276.41 1016.27 314.51 1054.37 328.4 1016.27 342.3 1002.37 380.39" style="fill: #5fcad4"/>
      <polygon id="star-middle" points="983.15 224.98 979.95 216.21 971.18 213.01 979.95 209.81 983.15 201.03 986.35 209.81 995.13 213.01 986.35 216.21 983.15 224.98" style="fill: #5fcad4"/>
    </g>
  </g>
</svg>
