<svg id="Layer_1" data-name="Layer 1" xmlns="http://www.w3.org/2000/svg" viewBox="0 0 2000 967.12">
  <g id="light">
    <g>
      <path d="M365.55,508.46V498.08h31.11v13.28h-3.05ZM402.5,611.8l28.05,2.9v10.38h-65V614.7l28.06-2.9ZM380.43,558c0-19.91,0-40-.58-59.92h33.62c-.58,19.52-.58,39.62-.58,59.92v11.79c0,15.81,0,35.38.58,55.29H379.85c.58-19.53.58-39.63.58-59.93Zm37.88,18.5H396.66V565.66h21.9c17.08,0,25.52-11.87,25.52-29.53s-9.46-26.93-26.3-26.93H396.66V498.08h21.45c40.31,0,56.33,15.15,56.33,38.19C474.44,558.33,460.25,576.5,418.31,576.5Z" style="fill: #0370a3"/>
      <path d="M482.12,508.46V498.08h31.1v13.28h-3.05ZM516.27,611.8l28.06,2.9v10.38H482.12V614.7l28.05-2.9ZM497,558c0-19.91,0-40-.58-59.92h33.06c-.58,19.68-.58,39.46-.58,60.46v5.94c0,20.58,0,40.69.58,60.6H496.41c.58-19.53.58-39.63.58-59.93Zm16.51-2.1h22.77c19.2,0,25.07-11.21,25.07-23.66,0-15.54-8.42-23-24.2-23H513.22V498.08H545c30.41,0,47.25,12,47.25,32.07,0,14.75-11,29.92-45.24,31.76l.16-2c30.51.93,38.18,10.94,41.59,31.68l5.15,29.86-15.9-10,29,3.16v10.38c-9.2,2.13-12.31,2.77-21.17,2.77-16.45,0-26.13-4.77-28-19.8l-3.61-22.44c-1.91-13-6.69-18.92-18.27-18.92H513.5Z" style="fill: #0370a3"/>
      <path d="M614.14,508.46V498.08H676.5v10.38l-28.62,2.9H642.2ZM647.88,611.8l28.62,2.9v10.38H614.14V614.7l28.06-2.9ZM629,558c0-19.91,0-40-.58-59.92h33.62c-.58,19.52-.58,39.62-.58,59.92v7c0,20,0,40.15.58,60.06H628.44c.58-19.53.58-39.63.58-59.93Z" style="fill: #0370a3"/>
      <path d="M686.36,614.7l22.53-2.9h5.54l19.08,2.9v10.38H686.36ZM688,498.08h27.6l.28,13.28h-3.15L688,508.46Zm17,0h11L717.52,565v60.06H705Zm1.16,0H739l34.8,94.08h-6.43l32.85-94.08H813l-44.6,127H753.48ZM788.05,614.7l24.73-2.9h8.89l28.06,2.9v10.38H788.05Zm14.45-45.5.7-71.12h32.23c-.58,19.8-.58,39.9-.58,59.92v7.15c0,20.19,0,40.3.58,59.93H801.92C802.5,605.28,802.36,585.17,802.5,569.2Zm16.12-71.12H849v10.38l-27.36,2.9h-3Z" style="fill: #0370a3"/>
      <path d="M862.34,508.46V498.08h31.11v13.28H890.4ZM893.45,611.8v13.28H862.34V614.7l28.06-2.9ZM877.22,558c0-19.91,0-40-.58-59.92h33.62c-.58,19.52-.58,39.62-.58,59.92v6.37c0,20.69,0,40.8.58,60.71H876.64c.58-19.53.58-39.63.58-59.93Zm63.36-59.92,14,10.92H893.45V498.08h67.61l1.36,33.29H946.29ZM936,565.23H893.45v-11.4H936Zm30.26,26.56-1.35,33.29H893.45V614.3h65l-14,10.78,5.72-33.29Zm-36.17-34.64,2.9-18.53h11.21v41.62H933l-2.9-19.5Z" style="fill: #0370a3"/>
      <path d="M1119.12,606.64v9.93l-13,2.85,6.51-30.28h14.72l-.78,29.7c-10.36,5.73-24,9.83-40.58,9.83-37.23,0-67.15-21.94-67.15-67.09,0-45.77,32.2-67.1,68.49-67.1a75.33,75.33,0,0,1,37.87,9.56l.77,30h-14.72l-6.64-30.56,13,3v10.68c-9.21-8.29-17-11.72-25.69-11.72-20.65,0-38.79,16.81-38.79,56.32s17.41,55.89,37.86,55.89C1100.61,617.61,1110.06,613.63,1119.12,606.64Z" style="fill: #0370a3"/>
      <path d="M1139,508.46V498.08h63.75v10.38l-28.62,2.9H1167Zm31.1,103.34v13.28H1139V614.7l28.06-2.9Zm-16.81-113.72h33.62c-.58,19.63-.58,39.73-.58,59.92v10.18c0,17,0,37.1.58,56.9h-33.62c.58-19.63.58-39.74.58-55.88V558C1153.83,538,1153.83,517.88,1153.25,498.08ZM1241,587.2l-1.93,37.88h-69V614h62.53l-14.68,11.06,7.59-37.88Z" style="fill: #0370a3"/>
      <path d="M1249.91,508.46V498.08H1281v13.28h-3ZM1281,611.8v13.28h-31.11V614.7l28.06-2.9ZM1264.79,558c0-19.91,0-40-.58-59.92h33.62c-.58,19.52-.58,39.62-.58,59.92v6.37c0,20.69,0,40.8.58,60.71h-33.62c.58-19.53.58-39.63.58-59.93Zm63.36-59.92,14,10.92H1281V498.08h67.61l1.36,33.29h-16.13Zm-4.56,67.15H1281v-11.4h42.57Zm30.26,26.56-1.35,33.29H1281V614.3h65l-14,10.78,5.72-33.29Zm-36.17-34.64,2.9-18.53h11.21v41.62h-11.21l-2.9-19.5Z" style="fill: #0370a3"/>
      <path d="M1360.26,614.7l19.89-2.9h3.45l18.33,2.9v10.38h-41.67Zm55-116.89h20l43.49,127.27h-33l-33-103.79,7.24-9.77-36.93,113.56h-11.45Zm-20.8,79.11h52.19l4.34,11.26h-59.77Zm32.5,38.19,21.84-2.9h12.93l24.81,2.9v10h-59.58Z" style="fill: #0370a3"/>
      <path d="M1494,614.7l20.58-2.9h5.54l24.88,2.9v10.38h-51Zm10.09-109.79,11.15,5.47-21-1.78V498.08h43.64l69.34,95.17v32.2h-16.37Zm6.34-6.83,12.46,10.52V625.08h-12.46Zm62.26,0h51v10.38l-19.61,2.9h-5.4l-26-2.9Zm22.11,0h12.45V625.45L1594.8,613Z" style="fill: #0370a3"/>
      <path d="M1633.62,508.46V498.08H1696v10.38l-28.61,2.9h-5.68Zm33.74,103.34,28.61,2.9v10.38h-62.35V614.7l28.06-2.9ZM1648.5,558c0-19.91,0-40-.58-59.92h33.62C1681,517.6,1681,537.7,1681,558v7c0,20,0,40.15.58,60.06h-33.62c.58-19.53.58-39.63.58-59.93Z" style="fill: #0370a3"/>
      <path d="M1707.79,614.7l20.58-2.9h5.54l24.88,2.9v10.38h-51Zm10.09-109.79,11.15,5.47-21-1.78V498.08h43.64L1821,593.25v32.2h-16.36Zm6.35-6.83,12.45,10.52V625.08h-12.45Zm62.25,0h51v10.38l-19.6,2.9h-5.41l-26-2.9Zm22.11,0H1821V625.45L1808.59,613Z" style="fill: #0370a3"/>
      <path d="M1956.33,617.41c-13.48,7.65-26.62,11.26-43.78,11.26-39.78,0-66.9-25.17-66.9-67.37,0-40.67,25.36-66.82,69.2-66.82,12.7,0,26.22,2.9,37.46,8.86l.77,30.12h-15l-6.79-30.7,13.38,2.75v10.18c-9.46-7.43-17.58-10.29-26-10.29-20.92,0-38.74,17.45-38.74,55.9s17,56.4,38.42,56.4c8.09,0,13.56-2.23,21.93-6.81l-14.7,12.43V608.63c0-15.67-.19-30.33-.58-46.14h32c-.39,15.48-.58,30.78-.58,46.83Zm-48.54-44.54V562.49h58.9v10.38l-22.66,3h-12.65Z" style="fill: #0370a3"/>
      <path d="M867.35,808.14c0-10.2-5-14.83-16.69-20l-8.18-3.74c-22.78-10.38-35.9-21.87-35.9-43.26,0-23.21,18.75-37.3,48-37.3,13.79,0,27.11,3.64,36.53,9.83l-1.58,27.08H871.84l-4.72-29.19,15.58,5.54v9.67c-10.3-7.47-17.6-11.45-27.56-11.45-11,0-19.93,7-19.93,17.57,0,10.23,6.11,15.57,17.57,20.7l9.08,4.16c24.68,11.11,34.81,21.76,34.81,41.33,0,22.81-17.46,39-50.5,39-14.49,0-30.84-3.25-42-10.11l1.16-28.74h18l5,31.31-14.94-4.72V816.5c12.27,6.61,20.23,10.06,32.68,10.06C859.91,826.56,867.35,818.61,867.35,808.14Z" style="fill: #0370a3"/>
      <path d="M908.06,717.82V707.44h31.1v13.28h-3Zm31.1,103.34v13.28h-31.1V824.06l28.06-2.9Zm-16.22-53.8c0-19.91,0-40-.59-59.92H956c-.58,19.52-.58,39.63-.58,59.92v6.37c0,20.7,0,40.8.58,60.71H922.35c.59-19.52.59-39.63.59-59.92Zm63.35-59.92,14,10.92H939.16V707.44h67.62l1.35,33.29H992Zm-4.56,67.15H939.16v-11.4h42.57ZM1012,801.15l-1.36,33.29H939.16V823.66h65l-14,10.78,5.71-33.29Zm-36.17-34.63,2.9-18.54h11.21v41.63H978.73l-2.9-19.51Z" style="fill: #0370a3"/>
      <path d="M1023.07,717.82V707.44h31.11v13.28h-3Zm34.16,103.34,28.06,2.9v10.38h-62.22V824.06l28.06-2.9ZM1038,767.36c0-19.91,0-40-.58-59.92h33.06c-.58,19.68-.58,39.46-.58,60.46v5.94c0,20.59,0,40.69.58,60.6h-33.06c.58-19.52.58-39.63.58-59.92Zm16.51-2.1h22.77c19.2,0,25.07-11.21,25.07-23.66,0-15.54-8.42-23-24.2-23h-23.92V707.44H1086c30.41,0,47.25,12,47.25,32.07,0,14.75-11,29.92-45.25,31.76l.17-2c30.51.93,38.18,10.94,41.58,31.68l5.15,29.86-15.89-10,29,3.16v10.38c-9.19,2.13-12.3,2.77-21.17,2.77-16.44,0-26.13-4.77-28-19.8l-3.6-22.44c-1.91-13-6.69-18.92-18.27-18.92h-22.41Z" style="fill: #0370a3"/>
      <path d="M1166.74,720.72l-28.06-2.9V707.44h62.37v9.95l-27.52,3.33Zm-21-13.28h34.87l32.53,97.8-5.6,4.18,34.47-102h12.53l-44.27,127.38H1191.4Zm97.43,13.28-20.59-3.33v-9.95h41.86v10.38l-18.38,2.9Z" style="fill: #0370a3"/>
      <path d="M1271.28,717.82V707.44h62.35v10.38l-28.62,2.9h-5.68ZM1305,821.16l28.62,2.9v10.38h-62.35V824.06l28-2.9Zm-18.86-53.8c0-19.91,0-40-.58-59.92h33.62c-.58,19.52-.58,39.63-.58,59.92v7c0,20,0,40.15.58,60.06h-33.62c.58-19.52.58-39.63.58-59.92Z" style="fill: #0370a3"/>
      <path d="M1444,816v9.93l-13,2.85,6.5-30.28h14.72l-.77,29.7c-10.36,5.73-24,9.84-40.58,9.84-37.23,0-67.15-21.95-67.15-67.1,0-45.77,32.19-67.1,68.49-67.1a75.35,75.35,0,0,1,37.87,9.56l.77,30h-14.72l-6.65-30.56,13,3v10.67c-9.21-8.29-17-11.72-25.69-11.72-20.65,0-38.79,16.81-38.79,56.32s17.4,55.9,37.86,55.9C1425.46,827,1434.9,823,1444,816Z" style="fill: #0370a3"/>
      <path d="M1463.81,717.82V707.44h31.1v13.28h-3.05Zm31.1,103.34v13.28h-31.1V824.06l28-2.9Zm-16.23-53.8c0-19.91,0-40-.58-59.92h33.62c-.58,19.52-.58,39.63-.58,59.92v6.37c0,20.7,0,40.8.58,60.71H1478.1c.58-19.52.58-39.63.58-59.92ZM1542,707.44l14,10.92h-61.13V707.44h67.62l1.35,33.29h-16.13Zm-4.56,67.15h-42.57v-11.4h42.57Zm30.26,26.56-1.35,33.29h-71.48V823.66h65l-14,10.78,5.71-33.29Zm-36.16-34.63,2.89-18.54h11.21v41.63h-11.21l-2.89-19.51Z" style="fill: #0370a3"/>
    </g>
    <g id="long-semi">
      <path d="M722.28,226.61,719,225.27l-4-1.61c-1.64-.54-3.55-1.14-5.71-1.81-8.66-2.62-21.79-5.41-38.87-6.54-8.55-.43-18-.79-28.43-.31l-3.93.14-4,.25c-2.7.18-5.45.31-8.25.54-5.62.51-11.43,1-17.43,1.81-24,2.89-51.06,8.33-80.28,16.28a800.86,800.86,0,0,0-93.31,32A876.49,876.49,0,0,0,334.3,315.11c-33.88,19.39-67.78,42-99.44,68.29a515.68,515.68,0,0,0-45.28,42.23,394,394,0,0,0-38.72,48.08c-23,33.92-38,69.95-44,106.21a251,251,0,0,0-3.18,54.34c0,2.22.25,4.56.39,6.84s.29,4.59.49,6.86l.72,6.74.35,3.37.48,3.3q.42,3.32.86,6.61l1.11,6.47.54,3.23.68,3.17c.46,2.1.88,4.21,1.3,6.32,1.94,8.3,4.16,16.41,6.78,24.22a221.32,221.32,0,0,0,9,22.59,207.16,207.16,0,0,0,24.44,40.07c18.93,24.41,42.85,43.93,67.33,59a371.9,371.9,0,0,0,72.18,33.71,414.61,414.61,0,0,0,60.06,15.93,303.86,303.86,0,0,0,39.37,4.91,119.77,119.77,0,0,0,13.84.1L389.76,889c-9.08.88-22.5,2.17-40,3.14a541,541,0,0,1-64.47-.07c-25.34-1.64-54.58-5.49-86.52-15.24a291.69,291.69,0,0,1-49.19-20.14c-4.21-2.11-8.3-4.57-12.51-7-4.11-2.56-8.36-5-12.43-7.9a240.7,240.7,0,0,1-24.32-18.66A232.5,232.5,0,0,1,77.5,800.52c-1.78-2.08-3.64-4.13-5.38-6.27l-5.2-6.54c-1.76-2.18-3.31-4.51-5-6.79s-3.3-4.59-4.82-7a250,250,0,0,1-17.1-30q-1.85-4-3.72-7.95c-1.2-2.67-2.25-5.4-3.38-8.12l-1.66-4.1c-.55-1.37-1-2.76-1.53-4.15q-1.48-4.17-3-8.36c-.91-2.82-1.77-5.65-2.63-8.5l-1.28-4.28-1.13-4.32-2.23-8.68-1.89-8.75-.91-4.41-.75-4.43c-.49-3-1-5.92-1.46-8.89s-.78-5.94-1.17-8.93-.81-5.94-1-9a312.91,312.91,0,0,1,2.22-75.84l.74-4.82c.24-1.61.49-3.22.84-4.81q1-4.8,2-9.6l1-4.81,1.24-4.77,2.52-9.54c.84-3.19,2-6.29,2.94-9.45s2-6.31,3.16-9.41,2.36-6.18,3.54-9.28L34.31,494l2-4.56q2-4.54,4-9.11c1.36-3,2.92-6,4.38-9L47,466.94c.75-1.49,1.51-3,2.35-4.41l4.91-8.68c.84-1.44,1.63-2.91,2.5-4.32l2.65-4.23,5.32-8.44c1.85-2.76,3.75-5.48,5.64-8.22s3.74-5.51,5.79-8.11A420.78,420.78,0,0,1,128,363a501.38,501.38,0,0,1,57.62-45.48c39.47-26.77,80.13-47,119.74-62.82a755.23,755.23,0,0,1,114.89-35.22,770.57,770.57,0,0,1,102.52-15.71c15.75-1.32,30.79-2,45-2.23s27.57-.05,40,.64a421,421,0,0,1,63.33,7.71,243.74,243.74,0,0,1,38.39,11.19l5.57,2.25,3.94,1.83Z" style="fill: #0370a3"/>
    </g>
    <g id="short-semi">
      <path d="M227.18,491.23l.73-2c.46-1.34,1.14-3.32,2.18-5.88a181,181,0,0,1,10.45-21.87c1.24-2.34,2.74-4.69,4.22-7.25s3.15-5.14,5-7.8c3.52-5.43,7.64-11.13,12.22-17.15s9.76-12.28,15.43-18.76,11.9-13.14,18.69-19.91a485.56,485.56,0,0,1,47.29-41.35,524.8,524.8,0,0,1,60.33-40.17,530.39,530.39,0,0,1,72.81-34.61,490.35,490.35,0,0,1,83.94-24,432.05,432.05,0,0,1,87.8-7.64c28.64.55,56.37,3.85,82,10.33a329.64,329.64,0,0,1,37.06,11.68c3,1.2,5.89,2.46,8.78,3.67,1.45.63,2.89,1.23,4.31,1.88l4.21,2c2.77,1.38,5.57,2.63,8.25,4.11l7.92,4.4a234.31,234.31,0,0,1,28.55,19.43,227.3,227.3,0,0,1,23.26,21.35,229.8,229.8,0,0,1,31.86,42.63c3.9,6.69,7.21,13,10,19,1.43,2.94,2.64,5.84,3.86,8.54s2.26,5.34,3.2,7.84c3.9,9.93,6.33,17.76,7.94,23.06.8,2.65,1.38,4.67,1.76,6s.58,2,.58,2.05a58,58,0,0,0-3.15-7.77,142.27,142.27,0,0,0-12.21-20.65c-3-4.26-6.46-8.86-10.53-13.64A200.45,200.45,0,0,0,872.06,374a227.62,227.62,0,0,0-38-29.88,252.35,252.35,0,0,0-51.3-24.4c-9.53-3.35-19.61-6-30-8.58-10.37-2.26-21.56-4.38-32.94-6.06a499.8,499.8,0,0,0-72.09-5.5,529.73,529.73,0,0,0-78,5.81,627.64,627.64,0,0,0-77.48,16.46,688.52,688.52,0,0,0-70.8,23.82,642.08,642.08,0,0,0-62,28.47A508.68,508.68,0,0,0,308,404.91c-7.6,5.17-14.65,10.38-21.16,15.54s-12.51,10.21-17.89,15.19-10.27,9.79-14.52,14.45c-2.18,2.28-4.08,4.61-6,6.78s-3.58,4.33-5.12,6.42a124.84,124.84,0,0,0-12.78,20.25c-1.24,2.46-2,4.4-2.56,5.71Z" style="fill: #5fcad4"/>
    </g>
    <polygon id="star-left" points="736.51 130.03 727.02 108.46 705.45 98.98 727.02 89.49 736.51 67.92 745.99 89.49 767.56 98.98 745.99 108.46 736.51 130.03" style="fill: #0370a3"/>
    <polygon id="star-bottom" points="864.22 288.21 850.32 250.12 812.22 236.22 850.32 222.32 864.22 184.23 878.11 222.32 916.21 236.22 878.11 250.12 864.22 288.21" style="fill: #5fcad4"/>
    <polygon id="star-middle" points="845 132.8 841.8 124.02 833.02 120.82 841.8 117.62 845 108.85 848.2 117.62 856.97 120.82 848.2 124.02 845 132.8" style="fill: #5fcad4"/>
  </g>
</svg>
